# xmcd
#
# Track frame offsets:
#	150
#	18031
#	32631
#	46516
#	64140
#	79043
#	95336
#	108426
#	123305
#	138247
#	153429
#	168657
#	183165
#	196459
#	208903
#	220255
#	235707
#	249968
#	263137
#
# Disc length: 3773 seconds
#
# Revision: 0
# Processed by: cddbd v1.5.2PL0 Copyright (c) Steve Scherf et al.
# Submitted via: dBpowerAMP V4.0
#
DISCID=f70ebb13
DTITLE=João Neto and Frederico - Vale a Pena Sonhar
DYEAR=2009
DGENRE=sertanejo
TTITLE0=REVELAÇÃO
TTITLE1=NÃO VOU MAIS CHORAR
TTITLE2=TÔ SOFRENDO DE PAIXÃO
TTITLE3=HISTÓRIA DE NOVELA
TTITLE4=TEM QUE SER AGORA
TTITLE5=MAMITEIRO
TTITLE6=SAI PRA LÁ
TTITLE7=MATA MINHA SEDE
TTITLE8=LIGAÇÃO FORA DE ÁREA
TTITLE9=CHAMA EU
TTITLE10=A SUA VISTA
TTITLE11=MANIA DOIDA
TTITLE12=DESTINO
TTITLE13=OS ASTROS ME REVELAM
TTITLE14=INGRATA
TTITLE15=QUERO AMOR PRA VIDA INTEIRA
TTITLE16=BITOCA NAS MENINAS
TTITLE17=PEGA A SENHA
TTITLE18=VALE A PENA SONHAR
EXTD=VALE A PENA SONHAR
EXTT0=
EXTT1=
EXTT2=
EXTT3=
EXTT4=
EXTT5=
EXTT6=
EXTT7=
EXTT8=
EXTT9=
EXTT10=
EXTT11=
EXTT12=
EXTT13=
EXTT14=
EXTT15=
EXTT16=
EXTT17=
EXTT18=
PLAYORDER=
